HIERARCHY
ROOT Hips
{
	OFFSET 0.000000 0.000000 0.000000 
	CHANNELS 6 Xposition Yposition Zposition Zrotation Yrotation Xrotation
	JOINT LHipJoint
	{
		OFFSET 0.000000 0.000000 0.000000 
		CHANNELS 3 Zrotation Yrotation Xrotation
		JOINT LeftUpLeg
		{
			OFFSET 0.049174 -0.055197 0.022926 
			CHANNELS 3 Zrotation Yrotation Xrotation
			JOINT LeftLeg
			{
				OFFSET 0.075187 -0.206577 0.000000 
				CHANNELS 3 Zrotation Yrotation Xrotation
				JOINT LeftFoot
				{
					OFFSET 0.083177 -0.228528 0.000000 
					CHANNELS 3 Zrotation Yrotation Xrotation
					JOINT LeftToeBase
					{
						OFFSET 0.006522 -0.017919 0.066408 
						CHANNELS 3 Zrotation Yrotation Xrotation
						End Site
						{
							OFFSET 0.000000 -0.000000 0.034549 
						}
					}
				}
			}
		}
	}
	JOINT RHipJoint
	{
		OFFSET 0.000000 0.000000 0.000000 
		CHANNELS 3 Zrotation Yrotation Xrotation
		JOINT RightUpLeg
		{
			OFFSET -0.046656 -0.055197 0.022926 
			CHANNELS 3 Zrotation Yrotation Xrotation
			JOINT RightLeg
			{
				OFFSET -0.076145 -0.209206 0.000000 
				CHANNELS 3 Zrotation Yrotation Xrotation
				JOINT RightFoot
				{
					OFFSET -0.082175 -0.225773 0.000000 
					CHANNELS 3 Zrotation Yrotation Xrotation
					JOINT RightToeBase
					{
						OFFSET -0.008058 -0.022138 0.069332 
						CHANNELS 3 Zrotation Yrotation Xrotation
						End Site
						{
							OFFSET -0.000000 -0.000000 0.036391 
						}
					}
				}
			}
		}
	}
	JOINT LowerBack
	{
		OFFSET 0.000000 0.000000 0.000000 
		CHANNELS 3 Zrotation Yrotation Xrotation
		JOINT Spine
		{
			OFFSET -0.000011 0.066375 -0.007953 
			CHANNELS 3 Zrotation Yrotation Xrotation
			JOINT Spine1
			{
				OFFSET 0.001748 0.066993 -0.001037 
				CHANNELS 3 Zrotation Yrotation Xrotation
				JOINT Neck
				{
					OFFSET 0.000000 0.000000 0.000000 
					CHANNELS 3 Zrotation Yrotation Xrotation
					JOINT Neck1
					{
						OFFSET -0.003073 0.050852 0.007566 
						CHANNELS 3 Zrotation Yrotation Xrotation
						JOINT Head
						{
							OFFSET 0.003390 0.051888 -0.007078 
							CHANNELS 3 Zrotation Yrotation Xrotation
							End Site
							{
								OFFSET 0.001370 0.052583 -0.003294 
							}
						}
					}
				}
				JOINT LeftShoulder
				{
					OFFSET 0.000000 0.000000 0.000000 
					CHANNELS 3 Zrotation Yrotation Xrotation
					JOINT LeftArm
					{
						OFFSET 0.102846 0.024812 -0.021306 
						CHANNELS 3 Zrotation Yrotation Xrotation
						JOINT LeftForeArm
						{
							OFFSET 0.161034 -0.000000 -0.000000 
							CHANNELS 3 Zrotation Yrotation Xrotation
							JOINT LeftHand
							{
								OFFSET 0.117231 -0.000000 -0.000000 
								CHANNELS 3 Zrotation Yrotation Xrotation
								JOINT LeftFingerBase
								{
									OFFSET 0.000000 0.000000 0.000000 
									CHANNELS 3 Zrotation Yrotation Xrotation
									JOINT LeftHandIndex1
									{
										OFFSET 0.016537 -0.000000 0.000000 
										CHANNELS 3 Zrotation Yrotation Xrotation
										End Site
										{
											OFFSET 0.013332 -0.000000 0.000000 
										}
									}
								}
								JOINT LThumb
								{
									OFFSET 0.000000 0.000000 0.000000 
									CHANNELS 3 Zrotation Yrotation Xrotation
									End Site
									{
										OFFSET 0.013536 -0.000000 0.013536 
									}
								}
							}
						}
					}
				}
				JOINT RightShoulder
				{
					OFFSET 0.000000 0.000000 0.000000 
					CHANNELS 3 Zrotation Yrotation Xrotation
					JOINT RightArm
					{
						OFFSET -0.096067 0.033214 -0.013856 
						CHANNELS 3 Zrotation Yrotation Xrotation
						JOINT RightForeArm
						{
							OFFSET -0.165504 -0.000000 0.000000 
							CHANNELS 3 Zrotation Yrotation Xrotation
							JOINT RightHand
							{
								OFFSET -0.117545 -0.000000 -0.000000 
								CHANNELS 3 Zrotation Yrotation Xrotation
								JOINT RightFingerBase
								{
									OFFSET 0.000000 0.000000 0.000000 
									CHANNELS 3 Zrotation Yrotation Xrotation
									JOINT RightHandIndex1
									{
										OFFSET -0.023354 -0.000000 0.000000 
										CHANNELS 3 Zrotation Yrotation Xrotation
										End Site
										{
											OFFSET -0.018828 -0.000000 0.000000 
										}
									}
								}
								JOINT RThumb
								{
									OFFSET 0.000000 0.000000 0.000000 
									CHANNELS 3 Zrotation Yrotation Xrotation
									End Site
									{
										OFFSET -0.019116 -0.000000 0.019116 
									}
								}
							}
						}
					}
				}
			}
		}
	}
}
MOTION
Frames: 12
Frame Time: 0.008333
0.020297 0.567578 0.003384 -3.701300 -0.197800 8.606100 0.000000 0.000000 0.000000 -12.103700 -9.329700 -43.392700 13.594400 18.986401 70.961899 -0.051700 -4.221500 0.194800 0.284900 -3.432500 -9.485200 0.000000 0.000000 0.000000 27.214199 -3.103200 10.642200 -0.884500 -5.995100 16.770300 -0.922000 -8.728800 17.290001 -0.211500 2.960900 -8.170000 7.230100 2.492000 9.802400 3.595100 4.376600 -0.545500 -0.907100 1.980900 -5.831200 -8.998900 -5.185000 -21.864201 6.017200 -5.389100 12.719400 2.756600 -2.415300 7.899500 -0.000000 -0.000000 0.000000 -88.423698 32.726501 37.363400 114.914597 -57.519402 -81.397003 -0.000000 0.000000 -29.913500 14.715100 6.309400 1.653200 -7.125000 0.000000 -0.000000 -10.103200 36.339802 2.178900 -0.000000 -0.000000 0.000000 84.346703 -8.699500 41.356300 -143.161194 46.081402 -103.876198 0.000000 -0.000000 -4.832200 -17.614300 28.268900 -8.551400 7.125000 -0.000000 -0.000000 7.561400 -0.772700 7.524800 
0.020428 0.569897 0.017738 -3.554700 -0.034700 8.543500 0.000000 0.000000 0.000000 -12.619900 -9.481900 -42.840000 12.174300 18.463400 66.540298 -0.054300 -4.312200 0.252800 0.289300 -3.458700 -9.558700 0.000000 0.000000 0.000000 26.810301 -3.309100 12.249400 -0.760100 -5.568000 15.535900 -1.227800 -10.256600 20.012699 -0.041000 1.307000 -3.594000 7.425300 2.497700 10.066700 3.213200 4.453000 -1.071900 -1.452200 1.971600 -6.492600 -8.814500 -5.139200 -21.401600 6.272700 -5.496400 13.252200 2.805900 -2.441100 8.013800 -0.000000 0.000000 0.000000 -88.065804 34.170601 37.056000 115.650101 -57.361900 -82.016899 -0.000000 0.000000 -30.121700 15.053200 4.603700 1.236600 -7.125000 0.000000 -0.000000 -9.574300 34.619900 2.468500 -0.000000 0.000000 0.000000 84.758202 -9.866200 41.702202 -142.811600 46.313000 -103.623901 0.000000 -0.000000 -3.789400 -17.424400 27.292700 -8.189300 7.125000 -0.000000 -0.000000 7.580700 -1.792000 7.405700 
0.020659 0.571931 0.032203 -3.412800 0.133100 8.510100 0.000000 0.000000 0.000000 -13.132800 -9.661000 -42.150799 10.760900 17.816099 62.002701 -0.054800 -4.396000 0.052500 0.326600 -3.673200 -10.159100 0.000000 0.000000 0.000000 26.445900 -3.431000 13.618500 -0.691000 -5.314200 14.806800 -1.549800 -11.073400 22.472000 -0.024900 1.018300 -2.799200 7.122600 2.691500 9.060600 3.352000 4.550100 -0.679100 -1.086900 2.075400 -5.528600 -9.275300 -5.331300 -21.440399 6.476200 -5.651200 13.186600 2.926400 -2.517100 8.030800 0.000000 0.000000 0.000000 -88.450699 33.992599 37.035000 115.984596 -57.288300 -82.298401 -0.000000 0.000000 -30.302799 24.458401 16.986601 7.569300 -7.125000 0.000000 -0.000000 -3.338200 48.502399 -0.288700 0.000000 0.000000 0.000000 84.187103 -9.469600 41.712799 -142.162094 46.735500 -103.152496 0.000000 -0.000000 -3.568000 -17.580900 27.104401 -8.214600 7.125000 -0.000000 -0.000000 7.470000 -1.957100 7.273300 
0.020975 0.573619 0.046606 -3.168900 0.338200 8.645100 0.000000 0.000000 0.000000 -13.643200 -10.112600 -41.533298 9.373900 17.042400 57.374401 -0.056900 -4.449900 0.143000 0.370300 -3.908700 -10.820000 0.000000 0.000000 0.000000 26.054199 -3.406000 14.673700 -0.668800 -5.230000 14.565800 -1.895200 -11.643000 24.837700 -0.000000 0.006000 -0.016600 6.923300 2.809800 8.301600 3.318700 4.599300 -0.551300 -0.970400 2.127500 -4.972300 -9.599100 -5.431800 -21.455000 6.681700 -5.726800 13.156600 3.037300 -2.548600 8.046100 0.000000 -0.000000 0.000000 -88.593803 34.107300 36.953602 116.544197 -57.162601 -82.768997 -0.000000 0.000000 -30.399300 16.288500 8.530600 2.481900 -7.125000 0.000000 -0.000000 -9.144000 38.708801 1.431200 0.000000 -0.000000 0.000000 83.797897 -9.373200 41.911400 -141.544403 47.127800 -102.701302 0.000000 -0.000000 -3.914600 -17.686399 27.334400 -8.330300 7.125000 -0.000000 -0.000000 7.428500 -1.706700 7.265800 
0.021206 0.575116 0.060894 -2.957900 0.587700 8.766800 0.000000 0.000000 0.000000 -14.051200 -10.594600 -40.855301 8.052000 16.157301 52.749599 -0.064300 -4.567900 0.792300 0.486100 -4.470500 -12.404400 0.000000 0.000000 0.000000 25.904100 -3.027300 15.704500 -0.678800 -5.268100 14.674800 -2.067200 -12.606100 26.013201 -0.081300 -1.839000 5.061000 6.789900 2.893000 7.941600 3.208600 4.665200 -0.666100 -1.000800 2.163900 -4.886200 -9.726900 -5.531700 -21.508101 6.755300 -5.844400 13.405300 3.066400 -2.603400 8.155300 0.000000 0.000000 0.000000 -88.432404 34.512100 36.980301 117.108498 -57.032501 -83.242798 -0.000000 0.000000 -30.358801 26.096399 18.988600 9.055500 -7.125000 0.000000 -0.000000 -2.152300 50.932701 -0.314700 0.000000 0.000000 0.000000 83.615799 -9.815900 42.161999 -141.148300 47.374699 -102.410400 0.000000 -0.000000 -4.160000 -18.018999 27.137899 -8.439600 7.125000 -0.000000 -0.000000 7.211700 -1.850700 7.031500 
0.021222 0.576291 0.075172 -2.984600 0.714400 8.782800 0.000000 0.000000 0.000000 -14.138700 -10.907000 -40.057201 6.840300 15.195900 48.267601 -0.067900 -4.617200 1.773100 0.606100 -4.983300 -13.861000 0.000000 0.000000 0.000000 26.237101 -2.148900 16.853201 -0.725600 -5.442700 15.175700 -1.953000 -13.691100 25.456499 -0.139400 -2.406000 6.629200 6.754400 2.970700 7.798300 3.178400 4.764000 -0.851600 -1.020200 2.207000 -4.994600 -9.916500 -5.653900 -21.523899 6.825000 -5.985600 13.838000 3.101800 -2.674500 8.325100 0.000000 0.000000 0.000000 -88.203003 35.049400 37.066299 117.782700 -56.872398 -83.807899 -0.000000 0.000000 -30.402500 15.977100 8.652500 2.466400 -7.125000 0.000000 -0.000000 -9.430300 38.810699 1.453100 0.000000 0.000000 0.000000 83.446800 -10.434000 42.486301 -140.816696 47.578499 -102.166000 0.000000 -0.000000 -4.422700 -18.112101 27.024000 -8.453100 7.125000 -0.000000 -0.000000 7.145200 -1.950900 6.952700 
0.021281 0.576991 0.089241 -3.369700 0.921900 8.722700 0.000000 0.000000 0.000000 -13.795200 -11.193900 -39.238998 5.760700 14.192400 44.013599 -0.053200 -4.306400 3.010900 0.646300 -5.143000 -14.316900 0.000000 0.000000 0.000000 26.985100 -1.413800 17.838100 -0.810300 -5.744400 16.044500 -1.757700 -14.021500 24.294300 -0.093300 -1.969900 5.422600 7.146100 2.997700 7.772800 3.212700 4.847000 -0.993900 -1.210700 2.231200 -5.098100 -10.006800 -5.737500 -21.757200 6.894500 -6.086300 14.360300 3.124900 -2.717100 8.556400 -0.000000 0.000000 0.000000 -87.856697 35.513199 37.193501 118.671501 -56.653702 -84.551300 -0.000000 0.000000 -30.244499 15.678500 7.300800 2.042800 -7.125000 0.000000 -0.000000 -9.456700 37.408001 1.786300 -0.000000 0.000000 0.000000 83.307701 -10.957600 42.730499 -140.448105 47.802200 -101.893501 0.000000 -0.000000 -4.551200 -18.056801 26.954800 -8.406300 7.125000 -0.000000 -0.000000 7.171800 -2.030300 6.968600 
0.021172 0.577213 0.102884 -3.747900 1.091000 8.658500 0.000000 0.000000 0.000000 -13.413400 -11.406000 -38.526798 4.824700 13.183600 40.059799 -0.023400 -3.790200 4.196200 0.635200 -5.099200 -14.191700 0.000000 0.000000 0.000000 27.783701 -0.637900 18.614100 -0.939600 -6.174000 17.290100 -1.558200 -13.637300 22.928301 -0.071300 -1.722400 4.739100 7.441900 3.045100 7.651000 3.279500 4.920100 -0.886600 -1.299600 2.269000 -4.893500 -10.039100 -5.793200 -22.014400 7.024500 -6.149100 14.309800 3.162200 -2.729200 8.593800 -0.000000 -0.000000 0.000000 -87.579903 35.438801 37.353100 119.446800 -56.455502 -85.198196 -0.000000 0.000000 -29.942400 15.388800 6.740600 1.850300 -7.125000 0.000000 -0.000000 -9.610300 36.818001 1.956400 -0.000000 -0.000000 0.000000 83.154999 -10.901200 43.061901 -139.977905 48.083000 -101.544296 0.000000 -0.000000 -4.806700 -17.867001 26.703600 -8.242500 7.125000 -0.000000 -0.000000 7.262000 -2.316800 7.019800 
0.021000 0.577325 0.116644 -3.911100 1.025300 8.636000 0.000000 0.000000 0.000000 -13.222400 -11.542000 -37.807999 4.036900 12.209300 36.476501 0.003900 -3.165400 4.721700 0.695500 -5.331100 -14.855500 0.000000 0.000000 0.000000 28.301701 0.250500 19.149799 -1.128300 -6.746700 18.967199 -1.367000 -12.607200 21.419300 -0.044000 -1.353600 3.722400 7.410000 3.174000 7.431800 3.317000 5.056400 -0.745500 -1.237800 2.350500 -4.616700 -10.212700 -5.881200 -22.160900 7.201600 -6.233000 14.260600 3.236800 -2.756400 8.621600 -0.000000 -0.000000 0.000000 -87.506401 35.124500 37.467999 119.907097 -56.334599 -85.581596 -0.000000 0.000000 -29.744499 15.285700 6.891700 1.878300 -7.125000 0.000000 -0.000000 -9.720400 36.965900 1.943700 -0.000000 -0.000000 0.000000 82.945702 -10.749000 43.373199 -139.384598 48.430302 -101.101601 0.000000 -0.000000 -5.261100 -17.180099 27.675200 -8.171700 7.125000 -0.000000 -0.000000 7.761200 -1.445200 7.633900 
0.020875 0.577038 0.130362 -4.077800 0.959200 8.549100 0.000000 0.000000 0.000000 -13.028900 -11.730900 -36.969799 3.392600 11.304900 33.315300 0.024100 -2.348900 4.706200 0.859900 -5.913200 -16.532900 0.000000 0.000000 0.000000 28.790001 1.029800 19.442900 -1.389300 -7.457400 21.077700 -1.194700 -10.988300 19.863600 -0.016700 -0.835600 2.296600 7.346800 3.260200 7.511900 3.349100 5.185500 -0.869400 -1.192300 2.407800 -4.792000 -10.223200 -5.885200 -21.924101 7.200000 -6.268600 14.423100 3.236400 -2.779500 8.640900 -0.000000 -0.000000 0.000000 -87.425697 35.236900 37.517700 120.233398 -56.247398 -85.853104 -0.000000 0.000000 -29.207001 15.036900 7.056900 1.890300 -7.125000 0.000000 -0.000000 -9.955000 37.118999 1.954000 -0.000000 -0.000000 0.000000 82.786003 -11.188800 43.655102 -138.800400 48.764801 -100.663399 0.000000 -0.000000 -5.606200 -18.461399 25.031099 -8.040100 7.125000 -0.000000 -0.000000 6.753100 -3.924800 6.319900 
0.020803 0.576078 0.144044 -4.323700 1.105100 8.484000 0.000000 0.000000 0.000000 -12.749100 -12.009900 -36.288898 2.890800 10.516200 30.665001 0.042300 -1.305800 4.596800 0.894000 -6.026600 -16.861601 0.000000 0.000000 0.000000 29.361900 1.614300 19.386299 -1.731900 -8.283800 23.579300 -1.058000 -9.281700 18.528299 -0.024000 -1.000200 2.749500 7.376500 3.203700 7.540500 3.437800 5.132900 -1.014900 -1.118300 2.373500 -4.971700 -10.251400 -5.868200 -21.713800 7.282900 -6.277700 14.455000 3.271300 -2.781300 8.621300 0.000000 -0.000000 0.000000 -87.421097 35.400902 37.433201 120.584000 -56.152302 -86.144402 -0.000000 0.000000 -28.540501 17.436300 11.276900 3.514600 -7.125000 0.000000 -0.000000 -8.651200 41.627602 0.725700 0.000000 -0.000000 0.000000 82.507401 -11.618700 44.155899 -138.213104 49.093700 -100.220703 0.000000 -0.000000 -5.932600 -19.962200 23.294701 -8.174100 7.125000 -0.000000 -0.000000 5.677400 -5.470600 5.136100 
0.020556 0.574928 0.157841 -4.515100 1.136700 8.380200 0.000000 0.000000 0.000000 -12.522300 -12.110900 -35.674099 2.516200 9.867400 28.548300 0.052500 -0.098800 4.364600 0.773100 -5.614100 -15.668800 0.000000 0.000000 0.000000 29.875099 2.264100 19.137501 -2.164400 -9.200400 26.424299 -1.004900 -7.196900 17.903900 -0.083000 -1.858700 5.115300 7.195500 3.189000 7.413600 3.571600 5.087600 -0.969000 -0.866300 2.362700 -4.882000 -10.212100 -5.822500 -21.479200 7.318100 -6.239700 14.069500 3.283700 -2.761400 8.446800 -0.000000 -0.000000 0.000000 -87.397797 35.369900 37.452702 121.251297 -55.967201 -86.697998 -0.000000 0.000000 -28.268801 14.158600 6.034900 1.519300 -7.125000 0.000000 -0.000000 -10.520600 36.030701 2.352000 -0.000000 -0.000000 0.000000 82.163803 -11.631800 44.700500 -137.376297 49.549801 -99.585999 0.000000 -0.000000 -6.322100 -18.965200 24.288099 -8.045500 7.125000 -0.000000 -0.000000 6.380100 -4.605600 5.884600 
